<svg xmlns="http://www.w3.org/2000/svg" width="1120" height="560" viewBox="0 0 1120 560" role="img">
<style>
.title { font: 700 18px Arial, sans-serif; fill: #171a20; }
.axis-label { font: 12px Arial, sans-serif; fill: #333843; }
.tick { font: 11px Arial, sans-serif; fill: #586070; }
.legend { font: 12px Arial, sans-serif; fill: #232832; }
.point-label { font: 10px Arial, sans-serif; fill: #20242c; }
.x-label { font: 10px Arial, sans-serif; fill: #20242c; }
</style>
<rect x="0" y="0" width="1120" height="560" fill="#ffffff" />
<text x="560.0" y="30" text-anchor="middle" class="title">Checkpoint Python Completion Pass Rate</text>
<rect x="76" y="54" width="794" height="442" fill="#fbfbfd" stroke="#d5d9e2" />
<text x="473.0" y="542" text-anchor="middle" class="axis-label">Training step</text>
<text x="20" y="275.0" text-anchor="middle" class="axis-label" transform="rotate(-90 20 275.0)">Pass rate (%)</text>
<line x1="76" y1="496.0" x2="870" y2="496.0" stroke="#e6e9ef" stroke-width="1" />
<text x="66" y="500.0" text-anchor="end" class="tick">0.0</text>
<line x1="76" y1="407.6" x2="870" y2="407.6" stroke="#e6e9ef" stroke-width="1" />
<text x="66" y="411.6" text-anchor="end" class="tick">18.1</text>
<line x1="76" y1="319.2" x2="870" y2="319.2" stroke="#e6e9ef" stroke-width="1" />
<text x="66" y="323.2" text-anchor="end" class="tick">36.2</text>
<line x1="76" y1="230.8" x2="870" y2="230.8" stroke="#e6e9ef" stroke-width="1" />
<text x="66" y="234.8" text-anchor="end" class="tick">54.2</text>
<line x1="76" y1="142.4" x2="870" y2="142.4" stroke="#e6e9ef" stroke-width="1" />
<text x="66" y="146.4" text-anchor="end" class="tick">72.3</text>
<line x1="76" y1="54.0" x2="870" y2="54.0" stroke="#e6e9ef" stroke-width="1" />
<text x="66" y="58.0" text-anchor="end" class="tick">90.4</text>
<line x1="76.0" y1="54" x2="76.0" y2="496" stroke="#eef0f4" stroke-width="1" />
<text x="76.0" y="516" text-anchor="middle" class="tick">1500</text>
<line x1="234.8" y1="54" x2="234.8" y2="496" stroke="#eef0f4" stroke-width="1" />
<text x="234.8" y="516" text-anchor="middle" class="tick">4200</text>
<line x1="393.6" y1="54" x2="393.6" y2="496" stroke="#eef0f4" stroke-width="1" />
<text x="393.6" y="516" text-anchor="middle" class="tick">6900</text>
<line x1="552.4" y1="54" x2="552.4" y2="496" stroke="#eef0f4" stroke-width="1" />
<text x="552.4" y="516" text-anchor="middle" class="tick">9600</text>
<line x1="711.2" y1="54" x2="711.2" y2="496" stroke="#eef0f4" stroke-width="1" />
<text x="711.2" y="516" text-anchor="middle" class="tick">12300</text>
<line x1="870.0" y1="54" x2="870.0" y2="496" stroke="#eef0f4" stroke-width="1" />
<text x="870.0" y="516" text-anchor="middle" class="tick">15000</text>
<polyline points="76.0,259.7 164.2,156.3 252.4,142.8 340.7,117.2 428.9,99.3 517.1,98.8 605.3,107.5 693.6,96.9 781.8,102.7 870.0,86.7" fill="none" stroke="#2f6fbb" stroke-width="2.2" stroke-linejoin="round" stroke-linecap="round" />
<circle cx="870.0" cy="86.7" r="3.5" fill="#2f6fbb" />
<line x1="902" y1="66" x2="920" y2="66" stroke="#2f6fbb" stroke-width="3" />
<text x="928" y="70" class="legend">dense-active-9m6</text>
<polyline points="76.0,492.1 164.2,478.6 252.4,472.8 340.7,451.5 428.9,457.3 517.1,454.9 605.3,444.8 693.6,445.7 781.8,448.6 870.0,434.2" fill="none" stroke="#d98634" stroke-width="2.2" stroke-linejoin="round" stroke-linecap="round" />
<circle cx="870.0" cy="434.2" r="3.5" fill="#d98634" />
<line x1="902" y1="88" x2="920" y2="88" stroke="#d98634" stroke-width="3" />
<text x="928" y="92" class="legend">dense-deep</text>
<polyline points="76.0,496.0 164.2,495.0 252.4,483.9 340.7,483.9 428.9,483.4 517.1,483.9 605.3,484.9 693.6,486.8 781.8,485.9 870.0,481.0" fill="none" stroke="#3a8f5c" stroke-width="2.2" stroke-linejoin="round" stroke-linecap="round" />
<circle cx="870.0" cy="481.0" r="3.5" fill="#3a8f5c" />
<line x1="902" y1="110" x2="920" y2="110" stroke="#3a8f5c" stroke-width="3" />
<text x="928" y="114" class="legend">dense-wide</text>
<polyline points="76.0,351.0 164.2,307.6 252.4,280.5 340.7,253.0 428.9,260.7 517.1,224.4 605.3,232.2 693.6,228.8 781.8,221.5 870.0,225.4" fill="none" stroke="#9b59b6" stroke-width="2.2" stroke-linejoin="round" stroke-linecap="round" />
<circle cx="870.0" cy="225.4" r="3.5" fill="#9b59b6" />
<line x1="902" y1="132" x2="920" y2="132" stroke="#9b59b6" stroke-width="3" />
<text x="928" y="136" class="legend">modern-moe-deep</text>
<polyline points="76.0,475.2 164.2,459.8 252.4,449.1 340.7,449.6 428.9,444.8 517.1,440.4 605.3,440.4 693.6,439.5 781.8,438.0 870.0,440.0" fill="none" stroke="#c44e52" stroke-width="2.2" stroke-linejoin="round" stroke-linecap="round" />
<circle cx="870.0" cy="440.0" r="3.5" fill="#c44e52" />
<line x1="902" y1="154" x2="920" y2="154" stroke="#c44e52" stroke-width="3" />
<text x="928" y="158" class="legend">moe-deep-cosine</text>
<polyline points="76.0,491.2 164.2,463.6 252.4,453.5 340.7,434.2 428.9,440.9 517.1,428.4 605.3,433.2 693.6,425.5 781.8,429.8 870.0,423.0" fill="none" stroke="#5f7f8f" stroke-width="2.2" stroke-linejoin="round" stroke-linecap="round" />
<circle cx="870.0" cy="423.0" r="3.5" fill="#5f7f8f" />
<line x1="902" y1="176" x2="920" y2="176" stroke="#5f7f8f" stroke-width="3" />
<text x="928" y="180" class="legend">moe-deep-fim</text>
<polyline points="76.0,491.2 164.2,471.8 252.4,452.5 340.7,455.9 428.9,453.5 517.1,462.7 605.3,455.4 693.6,457.3 781.8,457.3 870.0,457.8" fill="none" stroke="#b39c2f" stroke-width="2.2" stroke-linejoin="round" stroke-linecap="round" />
<circle cx="870.0" cy="457.8" r="3.5" fill="#b39c2f" />
<line x1="902" y1="198" x2="920" y2="198" stroke="#b39c2f" stroke-width="3" />
<text x="928" y="202" class="legend">moe-deep-linear</text>
<polyline points="76.0,489.7 164.2,464.6 252.4,458.8 340.7,434.2 428.9,428.8 517.1,419.7 605.3,412.4 693.6,404.7 781.8,396.9 870.0,383.9" fill="none" stroke="#2a9d8f" stroke-width="2.2" stroke-linejoin="round" stroke-linecap="round" />
<circle cx="870.0" cy="383.9" r="3.5" fill="#2a9d8f" />
<line x1="902" y1="220" x2="920" y2="220" stroke="#2a9d8f" stroke-width="3" />
<text x="928" y="224" class="legend">moe-deep</text>
<polyline points="76.0,494.6 164.2,484.4 252.4,483.4 340.7,477.6 428.9,477.6 517.1,471.4 605.3,468.0 693.6,464.1 781.8,464.6 870.0,467.5" fill="none" stroke="#7f6d5f" stroke-width="2.2" stroke-linejoin="round" stroke-linecap="round" />
<circle cx="870.0" cy="467.5" r="3.5" fill="#7f6d5f" />
<line x1="902" y1="242" x2="920" y2="242" stroke="#7f6d5f" stroke-width="3" />
<text x="928" y="246" class="legend">moe-wide</text>
</svg>
