<svg xmlns="http://www.w3.org/2000/svg" width="1120" height="560" viewBox="0 0 1120 560" role="img">
<style>
.title { font: 700 18px Arial, sans-serif; fill: #171a20; }
.axis-label { font: 12px Arial, sans-serif; fill: #333843; }
.tick { font: 11px Arial, sans-serif; fill: #586070; }
.legend { font: 12px Arial, sans-serif; fill: #232832; }
.point-label { font: 10px Arial, sans-serif; fill: #20242c; }
.x-label { font: 10px Arial, sans-serif; fill: #20242c; }
</style>
<rect x="0" y="0" width="1120" height="560" fill="#ffffff" />
<text x="560.0" y="30" text-anchor="middle" class="title">Checkpoint AST Parse Rate</text>
<rect x="76" y="54" width="794" height="442" fill="#fbfbfd" stroke="#d5d9e2" />
<text x="473.0" y="542" text-anchor="middle" class="axis-label">Training step</text>
<text x="20" y="275.0" text-anchor="middle" class="axis-label" transform="rotate(-90 20 275.0)">AST parse rate (%)</text>
<line x1="76" y1="496.0" x2="870" y2="496.0" stroke="#e6e9ef" stroke-width="1" />
<text x="66" y="500.0" text-anchor="end" class="tick">0.0</text>
<line x1="76" y1="407.6" x2="870" y2="407.6" stroke="#e6e9ef" stroke-width="1" />
<text x="66" y="411.6" text-anchor="end" class="tick">21.6</text>
<line x1="76" y1="319.2" x2="870" y2="319.2" stroke="#e6e9ef" stroke-width="1" />
<text x="66" y="323.2" text-anchor="end" class="tick">43.2</text>
<line x1="76" y1="230.8" x2="870" y2="230.8" stroke="#e6e9ef" stroke-width="1" />
<text x="66" y="234.8" text-anchor="end" class="tick">64.8</text>
<line x1="76" y1="142.4" x2="870" y2="142.4" stroke="#e6e9ef" stroke-width="1" />
<text x="66" y="146.4" text-anchor="end" class="tick">86.4</text>
<line x1="76" y1="54.0" x2="870" y2="54.0" stroke="#e6e9ef" stroke-width="1" />
<text x="66" y="58.0" text-anchor="end" class="tick">108.0</text>
<line x1="76.0" y1="54" x2="76.0" y2="496" stroke="#eef0f4" stroke-width="1" />
<text x="76.0" y="516" text-anchor="middle" class="tick">500</text>
<line x1="234.8" y1="54" x2="234.8" y2="496" stroke="#eef0f4" stroke-width="1" />
<text x="234.8" y="516" text-anchor="middle" class="tick">3400</text>
<line x1="393.6" y1="54" x2="393.6" y2="496" stroke="#eef0f4" stroke-width="1" />
<text x="393.6" y="516" text-anchor="middle" class="tick">6300</text>
<line x1="552.4" y1="54" x2="552.4" y2="496" stroke="#eef0f4" stroke-width="1" />
<text x="552.4" y="516" text-anchor="middle" class="tick">9200</text>
<line x1="711.2" y1="54" x2="711.2" y2="496" stroke="#eef0f4" stroke-width="1" />
<text x="711.2" y="516" text-anchor="middle" class="tick">12100</text>
<line x1="870.0" y1="54" x2="870.0" y2="496" stroke="#eef0f4" stroke-width="1" />
<text x="870.0" y="516" text-anchor="middle" class="tick">15000</text>
<polyline points="130.8,105.6 212.9,93.8 295.0,89.1 377.2,93.8 459.3,86.7 541.4,86.7 623.6,86.7 705.7,86.7 787.9,89.1 870.0,86.7" fill="none" stroke="#2f6fbb" stroke-width="2.2" stroke-linejoin="round" stroke-linecap="round" />
<circle cx="870.0" cy="86.7" r="3.5" fill="#2f6fbb" />
<line x1="902" y1="66" x2="920" y2="66" stroke="#2f6fbb" stroke-width="3" />
<text x="928" y="70" class="legend">dense-active-9m6</text>
<polyline points="130.8,251.4 212.9,216.1 295.0,180.8 377.2,157.3 459.3,162.0 541.4,171.4 623.6,162.0 705.7,173.8 787.9,169.1 870.0,164.4" fill="none" stroke="#d98634" stroke-width="2.2" stroke-linejoin="round" stroke-linecap="round" />
<circle cx="870.0" cy="164.4" r="3.5" fill="#d98634" />
<line x1="902" y1="88" x2="920" y2="88" stroke="#d98634" stroke-width="3" />
<text x="928" y="92" class="legend">dense-deep</text>
<polyline points="130.8,439.6 212.9,354.9 295.0,310.2 377.2,317.2 459.3,310.2 541.4,303.1 623.6,289.0 705.7,312.5 787.9,296.1 870.0,296.1" fill="none" stroke="#3a8f5c" stroke-width="2.2" stroke-linejoin="round" stroke-linecap="round" />
<circle cx="870.0" cy="296.1" r="3.5" fill="#3a8f5c" />
<line x1="902" y1="110" x2="920" y2="110" stroke="#3a8f5c" stroke-width="3" />
<text x="928" y="114" class="legend">dense-wide</text>
<polyline points="76.0,493.6 103.4,467.8 185.5,458.4 240.3,430.1 267.7,456.0 322.4,446.6 404.6,437.2 431.9,394.9 459.3,427.8 541.4,437.2 596.2,437.2 623.6,399.6 678.3,430.1 733.1,434.8 815.2,423.1 842.6,419.6 870.0,424.3" fill="none" stroke="#9b59b6" stroke-width="2.2" stroke-linejoin="round" stroke-linecap="round" />
<circle cx="870.0" cy="424.3" r="3.5" fill="#9b59b6" />
<line x1="902" y1="132" x2="920" y2="132" stroke="#9b59b6" stroke-width="3" />
<text x="928" y="136" class="legend">modern-dense-cosine-lr2e3-qknorm</text>
<polyline points="76.0,479.5 130.8,350.2 295.0,227.9 431.9,206.7 568.8,209.0 678.3,225.5 815.2,216.1 842.6,192.6 870.0,171.4" fill="none" stroke="#c44e52" stroke-width="2.2" stroke-linejoin="round" stroke-linecap="round" />
<circle cx="870.0" cy="171.4" r="3.5" fill="#c44e52" />
<line x1="902" y1="154" x2="920" y2="154" stroke="#c44e52" stroke-width="3" />
<text x="928" y="158" class="legend">modern-dense-deep-qknorm</text>
<polyline points="76.0,189.1 103.4,147.9 130.8,159.7 185.5,124.4 240.3,136.1 295.0,140.8 349.8,118.5 404.6,112.6 459.3,126.7 514.1,129.1 541.4,98.5 568.8,115.0 623.6,126.7 678.3,131.4 705.7,117.3 733.1,122.0 787.9,122.0 815.2,115.0 842.6,117.3 870.0,125.5" fill="none" stroke="#5f7f8f" stroke-width="2.2" stroke-linejoin="round" stroke-linecap="round" />
<circle cx="870.0" cy="125.5" r="3.5" fill="#5f7f8f" />
<line x1="902" y1="176" x2="920" y2="176" stroke="#5f7f8f" stroke-width="3" />
<text x="928" y="180" class="legend">modern-dense-ffn-large</text>
<polyline points="76.0,179.6 103.4,159.7 130.8,152.6 185.5,103.2 212.9,138.5 240.3,119.7 295.0,117.3 349.8,122.0 377.2,122.0 404.6,136.1 459.3,110.3 514.1,126.7 541.4,124.4 568.8,112.6 623.6,110.3 678.3,105.6 733.1,110.3 760.5,131.4 787.9,110.3 815.2,106.7 842.6,124.4 870.0,111.4" fill="none" stroke="#b39c2f" stroke-width="2.2" stroke-linejoin="round" stroke-linecap="round" />
<circle cx="870.0" cy="111.4" r="3.5" fill="#b39c2f" />
<line x1="902" y1="198" x2="920" y2="198" stroke="#b39c2f" stroke-width="3" />
<text x="928" y="202" class="legend">modern-dense-ffn-medium</text>
<polyline points="76.0,177.3 103.4,126.7 130.8,119.7 158.1,124.4 185.5,138.5 212.9,129.1 267.7,122.0 322.4,122.0 377.2,112.6 431.9,119.7 486.7,145.5 514.1,117.3 541.4,117.3 596.2,119.7 678.3,126.7 705.7,105.6 733.1,129.1 787.9,103.2 815.2,109.1 842.6,111.4 870.0,107.9" fill="none" stroke="#2a9d8f" stroke-width="2.2" stroke-linejoin="round" stroke-linecap="round" />
<circle cx="870.0" cy="107.9" r="3.5" fill="#2a9d8f" />
<line x1="902" y1="220" x2="920" y2="220" stroke="#2a9d8f" stroke-width="3" />
<text x="928" y="224" class="legend">modern-dense-ffn</text>
<polyline points="76.0,432.5 103.4,376.0 130.8,332.5 158.1,310.2 185.5,289.0 212.9,270.2 240.3,298.4 295.0,296.1 349.8,267.8 377.2,289.0 431.9,232.6 459.3,251.4 486.7,253.7 541.4,236.1 596.2,192.6 651.0,214.9 678.3,194.9 733.1,178.5 760.5,180.8 787.9,178.5 815.2,189.1 842.6,171.4 870.0,173.8" fill="none" stroke="#7f6d5f" stroke-width="2.2" stroke-linejoin="round" stroke-linecap="round" />
<circle cx="870.0" cy="173.8" r="3.5" fill="#7f6d5f" />
<line x1="902" y1="242" x2="920" y2="242" stroke="#7f6d5f" stroke-width="3" />
<text x="928" y="246" class="legend">modern-dense-heads12</text>
<polyline points="76.0,465.4 103.4,434.8 130.8,488.9 185.5,418.4 240.3,369.0 295.0,282.0 349.8,225.5 377.2,333.7 431.9,244.3 486.7,244.3 514.1,265.5 541.4,265.5 623.6,218.5 651.0,256.1 678.3,237.3 733.1,204.3 787.9,244.3 815.2,218.5 842.6,236.1 870.0,233.7" fill="none" stroke="#2f6fbb" stroke-width="2.2" stroke-linejoin="round" stroke-linecap="round" />
<circle cx="870.0" cy="233.7" r="3.5" fill="#2f6fbb" />
<line x1="902" y1="264" x2="920" y2="264" stroke="#2f6fbb" stroke-width="3" />
<text x="928" y="268" class="legend">modern-dense-heads4</text>
<polyline points="76.0,480.7 103.4,411.3 130.8,298.4 185.5,238.4 240.3,197.3 295.0,206.7 322.4,251.4 349.8,199.6 404.6,202.0 431.9,174.9 486.7,220.8 541.4,194.9 568.8,145.5 596.2,187.9 651.0,176.1 678.3,173.8 705.7,183.2 760.5,178.5 815.2,167.9 842.6,169.1 870.0,172.6" fill="none" stroke="#d98634" stroke-width="2.2" stroke-linejoin="round" stroke-linecap="round" />
<circle cx="870.0" cy="172.6" r="3.5" fill="#d98634" />
<line x1="902" y1="286" x2="920" y2="286" stroke="#d98634" stroke-width="3" />
<text x="928" y="290" class="legend">modern-dense-heads8</text>
<polyline points="76.0,493.6 103.4,479.5 185.5,409.0 240.3,423.1 267.7,401.9 322.4,383.1 404.6,361.9 431.9,385.5 459.3,347.8 514.1,371.3 596.2,371.3 623.6,385.5 651.0,352.5 705.7,314.9 787.9,356.1 815.2,351.3 842.6,339.6 870.0,346.6" fill="none" stroke="#3a8f5c" stroke-width="2.2" stroke-linejoin="round" stroke-linecap="round" />
<circle cx="870.0" cy="346.6" r="3.5" fill="#3a8f5c" />
<line x1="902" y1="308" x2="920" y2="308" stroke="#3a8f5c" stroke-width="3" />
<text x="928" y="312" class="legend">modern-dense-qknorm-lr2e3</text>
<polyline points="76.0,496.0 103.4,491.3 185.5,472.5 240.3,474.8 267.7,453.7 322.4,434.8 377.2,446.6 459.3,437.2 514.1,441.9 568.8,437.2 623.6,432.5 651.0,432.5 705.7,430.1 760.5,432.5 815.2,425.4 842.6,426.6 870.0,418.4" fill="none" stroke="#9b59b6" stroke-width="2.2" stroke-linejoin="round" stroke-linecap="round" />
<circle cx="870.0" cy="418.4" r="3.5" fill="#9b59b6" />
<line x1="902" y1="330" x2="920" y2="330" stroke="#9b59b6" stroke-width="3" />
<text x="928" y="334" class="legend">modern-dense-qknorm-vocab4000</text>
<polyline points="76.0,206.7 103.4,150.2 130.8,140.8 212.9,123.2 267.7,107.9 322.4,107.9 404.6,103.2 459.3,98.5 514.1,100.9 596.2,105.6 651.0,100.9 705.7,103.2 760.5,100.9 787.9,112.6 815.2,102.0 842.6,102.0 870.0,105.6" fill="none" stroke="#c44e52" stroke-width="2.2" stroke-linejoin="round" stroke-linecap="round" />
<circle cx="870.0" cy="105.6" r="3.5" fill="#c44e52" />
<line x1="902" y1="352" x2="920" y2="352" stroke="#c44e52" stroke-width="3" />
<text x="928" y="356" class="legend">modern-dense-vocab2000-param-match</text>
<polyline points="76.0,179.6 103.4,159.7 130.8,152.6 185.5,103.2 212.9,138.5 240.3,119.7 295.0,117.3 349.8,122.0 377.2,122.0 404.6,136.1 459.3,110.3 514.1,126.7 541.4,124.4 568.8,112.6 623.6,110.3 678.3,105.6 733.1,110.3 760.5,131.4 787.9,110.3 815.2,106.7 842.6,124.4 870.0,111.4" fill="none" stroke="#5f7f8f" stroke-width="2.2" stroke-linejoin="round" stroke-linecap="round" />
<circle cx="870.0" cy="111.4" r="3.5" fill="#5f7f8f" />
<line x1="902" y1="374" x2="920" y2="374" stroke="#5f7f8f" stroke-width="3" />
<text x="928" y="378" class="legend">modern-dense-vocab4000-baseline</text>
<polyline points="130.8,110.3 212.9,93.8 295.0,98.5 377.2,100.9 459.3,91.4 541.4,96.1 623.6,93.8 705.7,96.1 787.9,91.4 870.0,91.4" fill="none" stroke="#b39c2f" stroke-width="2.2" stroke-linejoin="round" stroke-linecap="round" />
<circle cx="870.0" cy="91.4" r="3.5" fill="#b39c2f" />
<line x1="902" y1="396" x2="920" y2="396" stroke="#b39c2f" stroke-width="3" />
<text x="928" y="400" class="legend">modern-moe-deep</text>
<polyline points="76.0,155.0 103.4,107.9 130.8,133.8 185.5,105.6 295.0,103.2 404.6,91.4 431.9,91.4 486.7,98.5 568.8,93.8 596.2,96.1 705.7,98.5 815.2,98.5 842.6,97.3 870.0,98.5" fill="none" stroke="#2a9d8f" stroke-width="2.2" stroke-linejoin="round" stroke-linecap="round" />
<circle cx="870.0" cy="98.5" r="3.5" fill="#2a9d8f" />
<line x1="902" y1="418" x2="920" y2="418" stroke="#2a9d8f" stroke-width="3" />
<text x="928" y="422" class="legend">modern-moe-vocab4000-aux010</text>
<polyline points="130.8,282.0 212.9,206.7 295.0,152.6 377.2,157.3 459.3,150.2 541.4,162.0 623.6,157.3 705.7,173.8 787.9,169.1 870.0,178.5" fill="none" stroke="#7f6d5f" stroke-width="2.2" stroke-linejoin="round" stroke-linecap="round" />
<circle cx="870.0" cy="178.5" r="3.5" fill="#7f6d5f" />
<line x1="902" y1="440" x2="920" y2="440" stroke="#7f6d5f" stroke-width="3" />
<text x="928" y="444" class="legend">moe-deep-cosine</text>
<polyline points="130.8,263.1 212.9,202.0 295.0,173.8 377.2,178.5 459.3,159.7 541.4,140.8 623.6,166.7 705.7,155.0 787.9,138.5 870.0,145.5" fill="none" stroke="#2f6fbb" stroke-width="2.2" stroke-linejoin="round" stroke-linecap="round" />
<circle cx="870.0" cy="145.5" r="3.5" fill="#2f6fbb" />
<line x1="902" y1="462" x2="920" y2="462" stroke="#2f6fbb" stroke-width="3" />
<text x="928" y="466" class="legend">moe-deep-fim</text>
<polyline points="130.8,336.1 212.9,220.8 295.0,180.8 377.2,192.6 459.3,166.7 541.4,209.0 623.6,176.1 705.7,206.7 787.9,204.3 870.0,197.3" fill="none" stroke="#d98634" stroke-width="2.2" stroke-linejoin="round" stroke-linecap="round" />
<circle cx="870.0" cy="197.3" r="3.5" fill="#d98634" />
<line x1="902" y1="484" x2="920" y2="484" stroke="#d98634" stroke-width="3" />
<text x="928" y="488" class="legend">moe-deep-linear</text>
<polyline points="130.8,326.7 212.9,223.2 295.0,178.5 377.2,169.1 459.3,155.0 541.4,166.7 623.6,169.1 705.7,159.7 787.9,162.0 870.0,150.2" fill="none" stroke="#3a8f5c" stroke-width="2.2" stroke-linejoin="round" stroke-linecap="round" />
<circle cx="870.0" cy="150.2" r="3.5" fill="#3a8f5c" />
<line x1="902" y1="506" x2="920" y2="506" stroke="#3a8f5c" stroke-width="3" />
<text x="928" y="510" class="legend">moe-deep</text>
<polyline points="130.8,416.0 212.9,329.0 295.0,319.6 377.2,324.3 459.3,298.4 541.4,303.1 623.6,270.2 705.7,263.1 787.9,274.9 870.0,270.2" fill="none" stroke="#9b59b6" stroke-width="2.2" stroke-linejoin="round" stroke-linecap="round" />
<circle cx="870.0" cy="270.2" r="3.5" fill="#9b59b6" />
<line x1="902" y1="528" x2="920" y2="528" stroke="#9b59b6" stroke-width="3" />
<text x="928" y="532" class="legend">moe-wide</text>
<polyline points="76.0,496.0 130.8,246.7 212.9,180.8 267.7,164.4 295.0,162.0 377.2,162.0 404.6,133.8 459.3,143.2 514.1,131.4 541.4,157.3 623.6,136.1 651.0,126.7 733.1,145.5 760.5,136.1 815.2,135.0 842.6,137.3 870.0,131.4" fill="none" stroke="#c44e52" stroke-width="2.2" stroke-linejoin="round" stroke-linecap="round" />
<circle cx="870.0" cy="131.4" r="3.5" fill="#c44e52" />
<line x1="902" y1="550" x2="920" y2="550" stroke="#c44e52" stroke-width="3" />
<text x="928" y="554" class="legend">moe-vocab4000-aux010</text>
</svg>
