<svg xmlns="http://www.w3.org/2000/svg" width="1120" height="560" viewBox="0 0 1120 560" role="img">
<style>
.title { font: 700 18px Arial, sans-serif; fill: #171a20; }
.axis-label { font: 12px Arial, sans-serif; fill: #333843; }
.tick { font: 11px Arial, sans-serif; fill: #586070; }
.legend { font: 12px Arial, sans-serif; fill: #232832; }
.point-label { font: 10px Arial, sans-serif; fill: #20242c; }
.x-label { font: 10px Arial, sans-serif; fill: #20242c; }
</style>
<rect x="0" y="0" width="1120" height="560" fill="#ffffff" />
<text x="560.0" y="30" text-anchor="middle" class="title">Checkpoint AST Parse Rate</text>
<rect x="76" y="54" width="794" height="442" fill="#fbfbfd" stroke="#d5d9e2" />
<text x="473.0" y="542" text-anchor="middle" class="axis-label">Training step</text>
<text x="20" y="275.0" text-anchor="middle" class="axis-label" transform="rotate(-90 20 275.0)">AST parse rate (%)</text>
<line x1="76" y1="496.0" x2="870" y2="496.0" stroke="#e6e9ef" stroke-width="1" />
<text x="66" y="500.0" text-anchor="end" class="tick">0.0</text>
<line x1="76" y1="407.6" x2="870" y2="407.6" stroke="#e6e9ef" stroke-width="1" />
<text x="66" y="411.6" text-anchor="end" class="tick">21.6</text>
<line x1="76" y1="319.2" x2="870" y2="319.2" stroke="#e6e9ef" stroke-width="1" />
<text x="66" y="323.2" text-anchor="end" class="tick">43.2</text>
<line x1="76" y1="230.8" x2="870" y2="230.8" stroke="#e6e9ef" stroke-width="1" />
<text x="66" y="234.8" text-anchor="end" class="tick">64.8</text>
<line x1="76" y1="142.4" x2="870" y2="142.4" stroke="#e6e9ef" stroke-width="1" />
<text x="66" y="146.4" text-anchor="end" class="tick">86.4</text>
<line x1="76" y1="54.0" x2="870" y2="54.0" stroke="#e6e9ef" stroke-width="1" />
<text x="66" y="58.0" text-anchor="end" class="tick">108.0</text>
<line x1="76.0" y1="54" x2="76.0" y2="496" stroke="#eef0f4" stroke-width="1" />
<text x="76.0" y="516" text-anchor="middle" class="tick">500</text>
<line x1="234.8" y1="54" x2="234.8" y2="496" stroke="#eef0f4" stroke-width="1" />
<text x="234.8" y="516" text-anchor="middle" class="tick">6400</text>
<line x1="393.6" y1="54" x2="393.6" y2="496" stroke="#eef0f4" stroke-width="1" />
<text x="393.6" y="516" text-anchor="middle" class="tick">12300</text>
<line x1="552.4" y1="54" x2="552.4" y2="496" stroke="#eef0f4" stroke-width="1" />
<text x="552.4" y="516" text-anchor="middle" class="tick">18200</text>
<line x1="711.2" y1="54" x2="711.2" y2="496" stroke="#eef0f4" stroke-width="1" />
<text x="711.2" y="516" text-anchor="middle" class="tick">24100</text>
<line x1="870.0" y1="54" x2="870.0" y2="496" stroke="#eef0f4" stroke-width="1" />
<text x="870.0" y="516" text-anchor="middle" class="tick">30000</text>
<polyline points="102.9,105.6 143.3,93.8 183.7,89.1 224.0,93.8 264.4,86.7 304.8,86.7 345.2,86.7 385.5,86.7 425.9,89.1 466.3,86.7" fill="none" stroke="#2f6fbb" stroke-width="2.2" stroke-linejoin="round" stroke-linecap="round" />
<circle cx="466.3" cy="86.7" r="3.5" fill="#2f6fbb" />
<line x1="902" y1="66" x2="920" y2="66" stroke="#2f6fbb" stroke-width="3" />
<text x="928" y="70" class="legend">dense-active-9m6</text>
<polyline points="102.9,251.4 143.3,216.1 183.7,180.8 224.0,157.3 264.4,162.0 304.8,171.4 345.2,162.0 385.5,173.8 425.9,169.1 466.3,164.4" fill="none" stroke="#d98634" stroke-width="2.2" stroke-linejoin="round" stroke-linecap="round" />
<circle cx="466.3" cy="164.4" r="3.5" fill="#d98634" />
<line x1="902" y1="88" x2="920" y2="88" stroke="#d98634" stroke-width="3" />
<text x="928" y="92" class="legend">dense-deep</text>
<polyline points="102.9,439.6 143.3,354.9 183.7,310.2 224.0,317.2 264.4,310.2 304.8,303.1 345.2,289.0 385.5,312.5 425.9,296.1 466.3,296.1" fill="none" stroke="#3a8f5c" stroke-width="2.2" stroke-linejoin="round" stroke-linecap="round" />
<circle cx="466.3" cy="296.1" r="3.5" fill="#3a8f5c" />
<line x1="902" y1="110" x2="920" y2="110" stroke="#3a8f5c" stroke-width="3" />
<text x="928" y="114" class="legend">dense-wide</text>
<polyline points="76.0,105.6 116.4,89.1 197.1,89.1 277.9,86.7 358.6,86.7 439.4,89.1 506.6,86.7 587.4,86.7 668.1,86.7 748.9,86.7 829.6,86.7 843.1,89.1 856.5,91.4 870.0,89.1" fill="none" stroke="#9b59b6" stroke-width="2.2" stroke-linejoin="round" stroke-linecap="round" />
<circle cx="870.0" cy="89.1" r="3.5" fill="#9b59b6" />
<line x1="902" y1="132" x2="920" y2="132" stroke="#9b59b6" stroke-width="3" />
<text x="928" y="136" class="legend">modern-dense-active10m-vocab2000</text>
<polyline points="76.0,493.6 89.5,467.8 129.8,458.4 156.7,430.1 170.2,456.0 197.1,446.6 237.5,437.2 250.9,394.9 264.4,427.8 304.8,437.2 331.7,437.2 345.2,399.6 372.1,430.1 399.0,434.8 439.4,423.1 452.8,419.6 466.3,424.3" fill="none" stroke="#c44e52" stroke-width="2.2" stroke-linejoin="round" stroke-linecap="round" />
<circle cx="466.3" cy="424.3" r="3.5" fill="#c44e52" />
<line x1="902" y1="154" x2="920" y2="154" stroke="#c44e52" stroke-width="3" />
<text x="928" y="158" class="legend">modern-dense-cosine-lr2e3-qknorm</text>
<polyline points="76.0,479.5 102.9,350.2 183.7,227.9 250.9,206.7 318.2,209.0 372.1,225.5 439.4,216.1 452.8,192.6 466.3,171.4" fill="none" stroke="#5f7f8f" stroke-width="2.2" stroke-linejoin="round" stroke-linecap="round" />
<circle cx="466.3" cy="171.4" r="3.5" fill="#5f7f8f" />
<line x1="902" y1="176" x2="920" y2="176" stroke="#5f7f8f" stroke-width="3" />
<text x="928" y="180" class="legend">modern-dense-deep-qknorm</text>
<polyline points="76.0,189.1 89.5,147.9 102.9,159.7 129.8,124.4 156.7,136.1 183.7,140.8 210.6,118.5 237.5,112.6 264.4,126.7 291.3,129.1 304.8,98.5 318.2,115.0 345.2,126.7 372.1,131.4 385.5,117.3 399.0,122.0 425.9,122.0 439.4,115.0 452.8,117.3 466.3,125.5" fill="none" stroke="#b39c2f" stroke-width="2.2" stroke-linejoin="round" stroke-linecap="round" />
<circle cx="466.3" cy="125.5" r="3.5" fill="#b39c2f" />
<line x1="902" y1="198" x2="920" y2="198" stroke="#b39c2f" stroke-width="3" />
<text x="928" y="202" class="legend">modern-dense-ffn-large</text>
<polyline points="76.0,179.6 89.5,159.7 102.9,152.6 129.8,103.2 143.3,138.5 156.7,119.7 183.7,117.3 210.6,122.0 224.0,122.0 237.5,136.1 264.4,110.3 291.3,126.7 304.8,124.4 318.2,112.6 345.2,110.3 372.1,105.6 399.0,110.3 412.4,131.4 425.9,110.3 439.4,106.7 452.8,124.4 466.3,111.4" fill="none" stroke="#2a9d8f" stroke-width="2.2" stroke-linejoin="round" stroke-linecap="round" />
<circle cx="466.3" cy="111.4" r="3.5" fill="#2a9d8f" />
<line x1="902" y1="220" x2="920" y2="220" stroke="#2a9d8f" stroke-width="3" />
<text x="928" y="224" class="legend">modern-dense-ffn-medium</text>
<polyline points="76.0,177.3 89.5,126.7 102.9,119.7 116.4,124.4 129.8,138.5 143.3,129.1 170.2,122.0 197.1,122.0 224.0,112.6 250.9,119.7 277.9,145.5 291.3,117.3 304.8,117.3 331.7,119.7 372.1,126.7 385.5,105.6 399.0,129.1 425.9,103.2 439.4,109.1 452.8,111.4 466.3,107.9" fill="none" stroke="#7f6d5f" stroke-width="2.2" stroke-linejoin="round" stroke-linecap="round" />
<circle cx="466.3" cy="107.9" r="3.5" fill="#7f6d5f" />
<line x1="902" y1="242" x2="920" y2="242" stroke="#7f6d5f" stroke-width="3" />
<text x="928" y="246" class="legend">modern-dense-ffn</text>
<polyline points="76.0,432.5 89.5,376.0 102.9,332.5 116.4,310.2 129.8,289.0 143.3,270.2 156.7,298.4 183.7,296.1 210.6,267.8 224.0,289.0 250.9,232.6 264.4,251.4 277.9,253.7 304.8,236.1 331.7,192.6 358.6,214.9 372.1,194.9 399.0,178.5 412.4,180.8 425.9,178.5 439.4,189.1 452.8,171.4 466.3,173.8" fill="none" stroke="#2f6fbb" stroke-width="2.2" stroke-linejoin="round" stroke-linecap="round" />
<circle cx="466.3" cy="173.8" r="3.5" fill="#2f6fbb" />
<line x1="902" y1="264" x2="920" y2="264" stroke="#2f6fbb" stroke-width="3" />
<text x="928" y="268" class="legend">modern-dense-heads12</text>
<polyline points="76.0,465.4 89.5,434.8 102.9,488.9 129.8,418.4 156.7,369.0 183.7,282.0 210.6,225.5 224.0,333.7 250.9,244.3 277.9,244.3 291.3,265.5 304.8,265.5 345.2,218.5 358.6,256.1 372.1,237.3 399.0,204.3 425.9,244.3 439.4,218.5 452.8,236.1 466.3,233.7" fill="none" stroke="#d98634" stroke-width="2.2" stroke-linejoin="round" stroke-linecap="round" />
<circle cx="466.3" cy="233.7" r="3.5" fill="#d98634" />
<line x1="902" y1="286" x2="920" y2="286" stroke="#d98634" stroke-width="3" />
<text x="928" y="290" class="legend">modern-dense-heads4</text>
<polyline points="76.0,480.7 89.5,411.3 102.9,298.4 129.8,238.4 156.7,197.3 183.7,206.7 197.1,251.4 210.6,199.6 237.5,202.0 250.9,174.9 277.9,220.8 304.8,194.9 318.2,145.5 331.7,187.9 358.6,176.1 372.1,173.8 385.5,183.2 412.4,178.5 439.4,167.9 452.8,169.1 466.3,172.6" fill="none" stroke="#3a8f5c" stroke-width="2.2" stroke-linejoin="round" stroke-linecap="round" />
<circle cx="466.3" cy="172.6" r="3.5" fill="#3a8f5c" />
<line x1="902" y1="308" x2="920" y2="308" stroke="#3a8f5c" stroke-width="3" />
<text x="928" y="312" class="legend">modern-dense-heads8</text>
<polyline points="76.0,493.6 89.5,479.5 129.8,409.0 156.7,423.1 170.2,401.9 197.1,383.1 237.5,361.9 250.9,385.5 264.4,347.8 291.3,371.3 331.7,371.3 345.2,385.5 358.6,352.5 385.5,314.9 425.9,356.1 439.4,351.3 452.8,339.6 466.3,346.6" fill="none" stroke="#9b59b6" stroke-width="2.2" stroke-linejoin="round" stroke-linecap="round" />
<circle cx="466.3" cy="346.6" r="3.5" fill="#9b59b6" />
<line x1="902" y1="330" x2="920" y2="330" stroke="#9b59b6" stroke-width="3" />
<text x="928" y="334" class="legend">modern-dense-qknorm-lr2e3</text>
<polyline points="76.0,496.0 89.5,491.3 129.8,472.5 156.7,474.8 170.2,453.7 197.1,434.8 224.0,446.6 264.4,437.2 291.3,441.9 318.2,437.2 345.2,432.5 358.6,432.5 385.5,430.1 412.4,432.5 439.4,425.4 452.8,426.6 466.3,418.4" fill="none" stroke="#c44e52" stroke-width="2.2" stroke-linejoin="round" stroke-linecap="round" />
<circle cx="466.3" cy="418.4" r="3.5" fill="#c44e52" />
<line x1="902" y1="352" x2="920" y2="352" stroke="#c44e52" stroke-width="3" />
<text x="928" y="356" class="legend">modern-dense-qknorm-vocab4000</text>
<polyline points="76.0,206.7 89.5,150.2 102.9,140.8 143.3,123.2 170.2,107.9 197.1,107.9 237.5,103.2 264.4,98.5 291.3,100.9 331.7,105.6 358.6,100.9 385.5,103.2 412.4,100.9 425.9,112.6 439.4,102.0 452.8,102.0 466.3,105.6" fill="none" stroke="#5f7f8f" stroke-width="2.2" stroke-linejoin="round" stroke-linecap="round" />
<circle cx="466.3" cy="105.6" r="3.5" fill="#5f7f8f" />
<line x1="902" y1="374" x2="920" y2="374" stroke="#5f7f8f" stroke-width="3" />
<text x="928" y="378" class="legend">modern-dense-vocab2000-param-match</text>
<polyline points="76.0,179.6 89.5,159.7 102.9,152.6 129.8,103.2 143.3,138.5 156.7,119.7 183.7,117.3 210.6,122.0 224.0,122.0 237.5,136.1 264.4,110.3 291.3,126.7 304.8,124.4 318.2,112.6 345.2,110.3 372.1,105.6 399.0,110.3 412.4,131.4 425.9,110.3 439.4,106.7 452.8,124.4 466.3,111.4" fill="none" stroke="#b39c2f" stroke-width="2.2" stroke-linejoin="round" stroke-linecap="round" />
<circle cx="466.3" cy="111.4" r="3.5" fill="#b39c2f" />
<line x1="902" y1="396" x2="920" y2="396" stroke="#b39c2f" stroke-width="3" />
<text x="928" y="400" class="legend">modern-dense-vocab4000-baseline</text>
<polyline points="76.0,112.6 129.8,89.1 237.5,89.1 331.7,86.7 425.9,91.4 520.1,86.7 614.3,86.7 708.5,86.7 802.7,86.7 843.1,86.7 856.5,86.7 870.0,86.7" fill="none" stroke="#2a9d8f" stroke-width="2.2" stroke-linejoin="round" stroke-linecap="round" />
<circle cx="870.0" cy="86.7" r="3.5" fill="#2a9d8f" />
<line x1="902" y1="418" x2="920" y2="418" stroke="#2a9d8f" stroke-width="3" />
<text x="928" y="422" class="legend">modern-moe-deep10-vocab2000-aux020</text>
<polyline points="102.9,110.3 143.3,93.8 183.7,98.5 224.0,100.9 264.4,91.4 304.8,96.1 345.2,93.8 385.5,96.1 425.9,91.4 466.3,91.4" fill="none" stroke="#7f6d5f" stroke-width="2.2" stroke-linejoin="round" stroke-linecap="round" />
<circle cx="466.3" cy="91.4" r="3.5" fill="#7f6d5f" />
<line x1="902" y1="440" x2="920" y2="440" stroke="#7f6d5f" stroke-width="3" />
<text x="928" y="444" class="legend">modern-moe-deep</text>
<polyline points="76.0,147.9 116.4,100.9 197.1,89.1 277.9,93.8 358.6,93.8 439.4,89.1 452.8,89.1 466.3,91.4" fill="none" stroke="#2f6fbb" stroke-width="2.2" stroke-linejoin="round" stroke-linecap="round" />
<circle cx="466.3" cy="91.4" r="3.5" fill="#2f6fbb" />
<line x1="902" y1="462" x2="920" y2="462" stroke="#2f6fbb" stroke-width="3" />
<text x="928" y="466" class="legend">modern-moe-vocab2000-aux010</text>
<polyline points="76.0,164.4 116.4,105.6 197.1,100.9 277.9,91.4 358.6,91.4 425.9,96.1 439.4,96.1 452.8,98.5 466.3,96.1" fill="none" stroke="#d98634" stroke-width="2.2" stroke-linejoin="round" stroke-linecap="round" />
<circle cx="466.3" cy="96.1" r="3.5" fill="#d98634" />
<line x1="902" y1="484" x2="920" y2="484" stroke="#d98634" stroke-width="3" />
<text x="928" y="488" class="legend">modern-moe-vocab2000-aux020</text>
<polyline points="76.0,131.4 116.4,100.9 183.7,86.7 250.9,98.5 318.2,86.7 372.1,89.1 439.4,93.8 452.8,91.4 466.3,91.4" fill="none" stroke="#3a8f5c" stroke-width="2.2" stroke-linejoin="round" stroke-linecap="round" />
<circle cx="466.3" cy="91.4" r="3.5" fill="#3a8f5c" />
<line x1="902" y1="506" x2="920" y2="506" stroke="#3a8f5c" stroke-width="3" />
<text x="928" y="510" class="legend">modern-moe-vocab2000-topk2-aux010</text>
<polyline points="76.0,157.3 102.9,105.6 170.2,96.1 224.0,91.4 291.3,91.4 358.6,96.1 425.9,96.1 439.4,91.4 452.8,89.1 466.3,89.1" fill="none" stroke="#9b59b6" stroke-width="2.2" stroke-linejoin="round" stroke-linecap="round" />
<circle cx="466.3" cy="89.1" r="3.5" fill="#9b59b6" />
<line x1="902" y1="528" x2="920" y2="528" stroke="#9b59b6" stroke-width="3" />
<text x="928" y="532" class="legend">modern-moe-vocab2000-topk2-aux020</text>
<polyline points="76.0,155.0 89.5,107.9 102.9,133.8 129.8,105.6 183.7,103.2 237.5,91.4 250.9,91.4 277.9,98.5 318.2,93.8 331.7,96.1 385.5,98.5 439.4,98.5 452.8,97.3 466.3,98.5" fill="none" stroke="#c44e52" stroke-width="2.2" stroke-linejoin="round" stroke-linecap="round" />
<circle cx="466.3" cy="98.5" r="3.5" fill="#c44e52" />
<line x1="902" y1="550" x2="920" y2="550" stroke="#c44e52" stroke-width="3" />
<text x="928" y="554" class="legend">modern-moe-vocab4000-aux010</text>
<polyline points="102.9,282.0 143.3,206.7 183.7,152.6 224.0,157.3 264.4,150.2 304.8,162.0 345.2,157.3 385.5,173.8 425.9,169.1 466.3,178.5" fill="none" stroke="#5f7f8f" stroke-width="2.2" stroke-linejoin="round" stroke-linecap="round" />
<circle cx="466.3" cy="178.5" r="3.5" fill="#5f7f8f" />
<line x1="902" y1="572" x2="920" y2="572" stroke="#5f7f8f" stroke-width="3" />
<text x="928" y="576" class="legend">moe-deep-cosine</text>
<polyline points="102.9,263.1 143.3,202.0 183.7,173.8 224.0,178.5 264.4,159.7 304.8,140.8 345.2,166.7 385.5,155.0 425.9,138.5 466.3,145.5" fill="none" stroke="#b39c2f" stroke-width="2.2" stroke-linejoin="round" stroke-linecap="round" />
<circle cx="466.3" cy="145.5" r="3.5" fill="#b39c2f" />
<line x1="902" y1="594" x2="920" y2="594" stroke="#b39c2f" stroke-width="3" />
<text x="928" y="598" class="legend">moe-deep-fim</text>
<polyline points="102.9,336.1 143.3,220.8 183.7,180.8 224.0,192.6 264.4,166.7 304.8,209.0 345.2,176.1 385.5,206.7 425.9,204.3 466.3,197.3" fill="none" stroke="#2a9d8f" stroke-width="2.2" stroke-linejoin="round" stroke-linecap="round" />
<circle cx="466.3" cy="197.3" r="3.5" fill="#2a9d8f" />
<line x1="902" y1="616" x2="920" y2="616" stroke="#2a9d8f" stroke-width="3" />
<text x="928" y="620" class="legend">moe-deep-linear</text>
<polyline points="102.9,326.7 143.3,223.2 183.7,178.5 224.0,169.1 264.4,155.0 304.8,166.7 345.2,169.1 385.5,159.7 425.9,162.0 466.3,150.2" fill="none" stroke="#7f6d5f" stroke-width="2.2" stroke-linejoin="round" stroke-linecap="round" />
<circle cx="466.3" cy="150.2" r="3.5" fill="#7f6d5f" />
<line x1="902" y1="638" x2="920" y2="638" stroke="#7f6d5f" stroke-width="3" />
<text x="928" y="642" class="legend">moe-deep</text>
<polyline points="102.9,416.0 143.3,329.0 183.7,319.6 224.0,324.3 264.4,298.4 304.8,303.1 345.2,270.2 385.5,263.1 425.9,274.9 466.3,270.2" fill="none" stroke="#2f6fbb" stroke-width="2.2" stroke-linejoin="round" stroke-linecap="round" />
<circle cx="466.3" cy="270.2" r="3.5" fill="#2f6fbb" />
<line x1="902" y1="660" x2="920" y2="660" stroke="#2f6fbb" stroke-width="3" />
<text x="928" y="664" class="legend">moe-wide</text>
<polyline points="76.0,496.0 102.9,246.7 143.3,180.8 170.2,164.4 183.7,162.0 224.0,162.0 237.5,133.8 264.4,143.2 291.3,131.4 304.8,157.3 345.2,136.1 358.6,126.7 399.0,145.5 412.4,136.1 439.4,135.0 452.8,137.3 466.3,131.4" fill="none" stroke="#d98634" stroke-width="2.2" stroke-linejoin="round" stroke-linecap="round" />
<circle cx="466.3" cy="131.4" r="3.5" fill="#d98634" />
<line x1="902" y1="682" x2="920" y2="682" stroke="#d98634" stroke-width="3" />
<text x="928" y="686" class="legend">moe-vocab4000-aux010</text>
</svg>
